<svg xmlns="http://www.w3.org/2000/svg" width="30" height="30" viewBox="0 0 30 30"><path d="M12.489,19.728c0,1.292-.938,1.7-2.089,1.7H7.379V17.886h3.08C11.705,17.893,12.489,18.409,12.489,19.728Zm-.516-5.511c0-1.185-.917-1.467-1.935-1.467H7.386v3h2.859c1.011,0,1.728-.442,1.728-1.533Zm8.859,1.554a2,2,0,0,0-2.123,1.989h4.165A1.908,1.908,0,0,0,20.833,15.77ZM30,5.464V29.036a3.215,3.215,0,0,1-3.214,3.214H3.214A3.215,3.215,0,0,1,0,29.036V5.464A3.215,3.215,0,0,1,3.214,2.25H26.786A3.215,3.215,0,0,1,30,5.464ZM18.194,12.5H23.4V11.23h-5.21Zm-2.879,7.386a3.329,3.329,0,0,0-2.344-3.455,2.5,2.5,0,0,0,1.754-2.478c0-2.558-1.908-3.181-4.112-3.181H4.554V23.625h6.234C13.125,23.612,15.315,22.493,15.315,19.882Zm10.132-.991c0-2.752-1.614-5.049-4.527-5.049a4.674,4.674,0,0,0-4.761,4.929,4.537,4.537,0,0,0,4.761,4.888,4.152,4.152,0,0,0,4.359-3.134H23.022A2.118,2.118,0,0,1,21,21.737a2.1,2.1,0,0,1-2.283-2.364h6.71C25.433,19.219,25.446,19.051,25.446,18.891Z" transform="translate(0 -2.25)" fill="#f5f5f5"/></svg>