<svg xmlns="http://www.w3.org/2000/svg" width="154.5" height="125.531" viewBox="0 0 154.5 125.531">
  <path id="Icon_metro-camera" data-name="Icon metro-camera" d="M48.438,78.206A31.383,31.383,0,1,0,79.821,46.823,31.383,31.383,0,0,0,48.438,78.206ZM147.414,25.1h-33.8C111.2,15.44,108.789,5.784,99.133,5.784H60.508c-9.656,0-12.07,9.656-14.484,19.312h-33.8a9.685,9.685,0,0,0-9.656,9.656v86.906a9.685,9.685,0,0,0,9.656,9.656H147.414a9.685,9.685,0,0,0,9.656-9.656V34.753a9.685,9.685,0,0,0-9.656-9.656ZM79.821,121.056a42.85,42.85,0,1,1,42.85-42.85A42.849,42.849,0,0,1,79.821,121.056Zm67.594-66.99H128.1V44.409h19.313Z" transform="translate(-2.571 -5.784)" fill="#72a7a7"/>
</svg>
