<svg xmlns="http://www.w3.org/2000/svg" width="141.709" height="113.35" viewBox="0 0 141.709 113.35">
  <path id="Icon_awesome-code" data-name="Icon awesome-code" d="M61.753,113.242l-13.506-3.919a2.661,2.661,0,0,1-1.816-3.3L76.654,1.921a2.661,2.661,0,0,1,3.3-1.816L93.458,4.024a2.661,2.661,0,0,1,1.816,3.3l-30.222,104.1a2.653,2.653,0,0,1-3.3,1.816ZM36.513,88.4l9.631-10.273a2.657,2.657,0,0,0-.177-3.808L25.908,56.674,45.967,39.028a2.638,2.638,0,0,0,.177-3.808L36.513,24.947a2.66,2.66,0,0,0-3.764-.111L.845,54.725a2.639,2.639,0,0,0,0,3.875l31.9,29.912a2.64,2.64,0,0,0,3.764-.111Zm72.443.133,31.9-29.912a2.639,2.639,0,0,0,0-3.875l-31.9-29.934a2.681,2.681,0,0,0-3.764.111L95.561,35.2a2.657,2.657,0,0,0,.177,3.808L115.8,56.674,95.739,74.319a2.638,2.638,0,0,0-.177,3.808L105.192,88.4a2.66,2.66,0,0,0,3.764.133Z" transform="translate(0.002 -0.002)" fill="#72a7a7"/>
</svg>
