<svg xmlns="http://www.w3.org/2000/svg" width="167" height="83.513" viewBox="0 0 167 83.513">
  <path id="Icon_awesome-gamepad" data-name="Icon awesome-gamepad" d="M125.27,6.75H41.757a41.757,41.757,0,1,0,29.8,70.986H95.44A41.752,41.752,0,1,0,125.27,6.75ZM66.81,53.726a3.141,3.141,0,0,1-3.132,3.132H50.108V70.429a3.141,3.141,0,0,1-3.132,3.132H36.537a3.141,3.141,0,0,1-3.132-3.132V56.858H19.834A3.141,3.141,0,0,1,16.7,53.726V43.287a3.141,3.141,0,0,1,3.132-3.132H33.405V26.584a3.141,3.141,0,0,1,3.132-3.132H46.976a3.141,3.141,0,0,1,3.132,3.132V40.155H63.679a3.141,3.141,0,0,1,3.132,3.132Zm48.02,17.747a12.527,12.527,0,1,1,12.527-12.527A12.53,12.53,0,0,1,114.83,71.473Zm20.878-20.878a12.527,12.527,0,1,1,12.527-12.527A12.53,12.53,0,0,1,135.709,50.594Z" transform="translate(0 -6.75)" fill="#72a7a7"/>
</svg>
