<svg xmlns="http://www.w3.org/2000/svg" width="30.085" height="30.085" viewBox="0 0 30.085 30.085">
  <path id="Icon_awesome-linkedin" data-name="Icon awesome-linkedin" d="M27.936,2.25H2.142A2.158,2.158,0,0,0,0,4.419V30.166a2.158,2.158,0,0,0,2.142,2.169H27.936a2.164,2.164,0,0,0,2.149-2.169V4.419A2.164,2.164,0,0,0,27.936,2.25ZM9.093,28.037H4.634V13.68H9.1V28.037ZM6.863,11.719A2.585,2.585,0,1,1,9.448,9.133a2.587,2.587,0,0,1-2.585,2.585ZM25.807,28.037H21.348V21.053c0-1.665-.034-3.808-2.317-3.808-2.324,0-2.679,1.813-2.679,3.687v7.1H11.893V13.68h4.278V15.64h.06a4.7,4.7,0,0,1,4.224-2.317c4.513,0,5.352,2.975,5.352,6.843Z" transform="translate(0 -2.25)" fill="#72a7a7"/>
</svg>
