<svg xmlns="http://www.w3.org/2000/svg" width="97.135" height="126.235" viewBox="0 0 97.135 126.235">
  <path id="Icon_ionic-ios-musical-notes" data-name="Icon ionic-ios-musical-notes" d="M100.911,3.435c-1.426.273-61.3,11.9-62.572,12.138A2.69,2.69,0,0,0,35.881,18V90.86a8.37,8.37,0,0,1-.728,3.55,8.086,8.086,0,0,1-4.886,3.854c-1,.334-2.367.637-3.975,1C18.979,100.9,6.75,103.7,6.75,114.984c0,9.437,6.8,13.686,12.654,14.414a14.8,14.8,0,0,0,2.155.212h0c2.033,0,10.924-1,15.537-4.006,3.338-2.185,7.313-6.494,7.313-14.505V46.616a2.408,2.408,0,0,1,1.942-2.367l46.125-9.316A2.426,2.426,0,0,1,95.388,37.3V77.022a8.7,8.7,0,0,1-.759,4.066,8.065,8.065,0,0,1-4.916,3.854c-1,.334-2.67.637-4.279,1-7.313,1.639-19.542,4.4-19.542,15.688,0,10.226,7.708,14.323,12.684,14.657a25.077,25.077,0,0,0,5.887-.273,34.791,34.791,0,0,0,11.076-3.945,16,16,0,0,0,8.345-14.626V5.772A2.4,2.4,0,0,0,100.911,3.435Z" transform="translate(-6.75 -3.375)" fill="#72a7a7"/>
</svg>
