<svg xmlns="http://www.w3.org/2000/svg" width="131.587" height="128.347" viewBox="0 0 131.587 128.347">
  <path id="Icon_simple-adobephotoshop" data-name="Icon simple-adobephotoshop" d="M0,.45V126.8H129.587V.45Zm5.4,5.4H124.188V121.4H5.4Zm25.917,24.19c0-.362.756-.626,1.209-.626,3.477-.178,8.574-.27,13.92-.27,14.967,0,20.788,8.207,20.788,18.715,0,13.715-9.946,19.6-22.149,19.6-2.052,0-2.754-.092-4.185-.092V88.11c0,.448-.178.626-.621.626H31.943c-.448,0-.621-.162-.621-.61V30.039ZM40.9,58.721c1.242.086,2.225.086,4.374.086,6.317,0,12.257-2.225,12.257-10.777,0-6.857-4.244-10.335-11.458-10.335-2.138,0-4.185.086-5.167.178V58.737Zm46.473-6.415c-4.276,0-5.7,2.138-5.7,3.92,0,1.96.972,3.294,6.679,6.236,8.466,4.1,11.134,8.018,11.134,13.806,0,8.639-6.587,13.283-15.5,13.283-4.73,0-8.747-.988-11.069-2.322-.351-.178-.432-.443-.432-.891V78.418c0-.54.259-.718.616-.454a19.891,19.891,0,0,0,10.864,3.207c4.276,0,6.058-1.782,6.058-4.19,0-1.96-1.242-3.655-6.679-6.506-7.667-3.672-10.875-7.4-10.875-13.644,0-6.949,5.432-12.743,14.876-12.743,4.644,0,7.9.713,9.687,1.512a1.177,1.177,0,0,1,.54,1.069v7.4c0,.448-.27.718-.81.54a19.336,19.336,0,0,0-9.411-2.322Z" transform="translate(1 0.55)" fill="#72a7a7" stroke="#72a7a7" stroke-width="2"/>
</svg>
